<mxfile host="app.diagrams.net" modified="2023-12-30T11:55:49.973Z" agent="Mozilla/5.0 (Windows NT 10.0; Win64; x64) AppleWebKit/537.36 (KHTML, like Gecko) Chrome/119.0.0.0 Safari/537.36 OPR/105.0.0.0" etag="as-QJCsyBKJxEHOeVbo_" version="22.1.16" type="device">
  <diagram name="Page-1" id="b9nv78zKkubzRYG6jZ5o">
    <mxGraphModel dx="2911" dy="1759" grid="1" gridSize="10" guides="1" tooltips="1" connect="1" arrows="1" fold="1" page="1" pageScale="1" pageWidth="850" pageHeight="1100" math="0" shadow="0">
      <root>
        <mxCell id="0" />
        <mxCell id="1" parent="0" />
        <mxCell id="WdkqqA8Z08L83o_sLzLv-21" style="edgeStyle=orthogonalEdgeStyle;rounded=0;orthogonalLoop=1;jettySize=auto;html=1;entryX=0.5;entryY=1;entryDx=0;entryDy=0;" parent="1" source="WdkqqA8Z08L83o_sLzLv-14" target="WdkqqA8Z08L83o_sLzLv-19" edge="1">
          <mxGeometry relative="1" as="geometry" />
        </mxCell>
        <mxCell id="WdkqqA8Z08L83o_sLzLv-14" value="&lt;p style=&quot;margin:0px;margin-top:4px;text-align:center;&quot;&gt;&lt;b&gt;BaseDB&lt;/b&gt;&lt;/p&gt;&lt;hr size=&quot;1&quot;&gt;&lt;div style=&quot;text-align: center; height: 2px;&quot;&gt;protected abstract string GetTableName()&lt;br&gt;protected abstract T GetRowByPK(object pk)&lt;br&gt;&amp;nbsp;protected abstract Task&amp;lt;T&amp;gt; GetRowByPKAsync(object pk)&lt;br&gt;&amp;nbsp;protected abstract T CreateModel(object[] row)&lt;br&gt;protected abstract Task&amp;lt;T&amp;gt; CreateModelAsync(object[] row)&lt;br&gt;protected abstract List&amp;lt;T&amp;gt; CreateListModel(List&amp;lt;object[]&amp;gt; rows)&lt;br&gt;protected abstract Task&amp;lt;List&amp;lt;T&amp;gt;&amp;gt; CreateListModelAsync(List&amp;lt;object[]&amp;gt; rows)&lt;br&gt;&amp;nbsp;public List&amp;lt;T&amp;gt; SelectAll()&lt;br&gt;public List&amp;lt;T&amp;gt; SelectAll(Dictionary&amp;lt;string, string&amp;gt; parameters)&lt;br&gt;&lt;div&gt;&amp;nbsp; &amp;nbsp; &amp;nbsp; &amp;nbsp; public List&amp;lt;T&amp;gt; SelectAll(string query)&lt;/div&gt;&lt;div&gt;&amp;nbsp; &amp;nbsp; &amp;nbsp; &amp;nbsp; public List&amp;lt;T&amp;gt; SelectAll(string query, Dictionary&amp;lt;string, string&amp;gt; parameters)&lt;/div&gt;&lt;div&gt;&amp;nbsp; &amp;nbsp; &amp;nbsp; &amp;nbsp; protected void AddParameterToCommand(string name, object value)&lt;/div&gt;&lt;div&gt;&amp;nbsp; &amp;nbsp; &amp;nbsp; &amp;nbsp; protected int ExecNonQuery(string query)&lt;/div&gt;&lt;div&gt;&amp;nbsp; &amp;nbsp; &amp;nbsp; &amp;nbsp; protected object ExecScalar(string query)&lt;/div&gt;&lt;div&gt;&amp;nbsp; &amp;nbsp; &amp;nbsp; &amp;nbsp; protected int Insert(Dictionary&amp;lt;string, string&amp;gt; keyAndValue)&lt;/div&gt;&lt;div&gt;&amp;nbsp; &amp;nbsp; &amp;nbsp; &amp;nbsp; protected object InsertGetObj(Dictionary&amp;lt;string, string&amp;gt; keyAndValue)&lt;/div&gt;&lt;div&gt;&amp;nbsp; &amp;nbsp; &amp;nbsp; &amp;nbsp; protected int Update(Dictionary&amp;lt;string, string&amp;gt; FildValue, Dictionary&amp;lt;string, string&amp;gt; parameters)&lt;/div&gt;&lt;div&gt;&amp;nbsp; &amp;nbsp; &amp;nbsp; &amp;nbsp; protected int Delete(Dictionary&amp;lt;string, string&amp;gt; parameters)&lt;/div&gt;&lt;div&gt;&amp;nbsp; &amp;nbsp; &amp;nbsp; &amp;nbsp; public async Task&amp;lt;List&amp;lt;T&amp;gt;&amp;gt; SelectAllAsync()&lt;/div&gt;&lt;div&gt;&amp;nbsp; &amp;nbsp; &amp;nbsp; &amp;nbsp; public async Task&amp;lt;List&amp;lt;T&amp;gt;&amp;gt; SelectAllAsync(Dictionary&amp;lt;string, string&amp;gt; parameters)&lt;/div&gt;&lt;div&gt;&amp;nbsp; &amp;nbsp; &amp;nbsp; &amp;nbsp; public async Task&amp;lt;List&amp;lt;T&amp;gt;&amp;gt; SelectAllAsync(string query)&lt;/div&gt;&lt;div&gt;&amp;nbsp; &amp;nbsp; &amp;nbsp; &amp;nbsp; public async Task&amp;lt;List&amp;lt;T&amp;gt;&amp;gt; SelectAllAsync(string query, Dictionary&amp;lt;string, string&amp;gt; parameters)&lt;/div&gt;&lt;div&gt;&amp;nbsp; &amp;nbsp; &amp;nbsp; &amp;nbsp; protected async Task&amp;lt;int&amp;gt; ExecNonQueryAsync(string query)&lt;/div&gt;&lt;div&gt;&amp;nbsp; &amp;nbsp; &amp;nbsp; &amp;nbsp; protected async Task&amp;lt;object&amp;gt; ExecScalarAsync(string query)&lt;/div&gt;&lt;div&gt;&amp;nbsp; &amp;nbsp; &amp;nbsp; &amp;nbsp; protected async Task&amp;lt;int&amp;gt; InsertAsync(Dictionary&amp;lt;string, string&amp;gt; keyAndValue)&lt;/div&gt;&lt;div&gt;&amp;nbsp; &amp;nbsp; &amp;nbsp; &amp;nbsp; protected async Task&amp;lt;object&amp;gt; InsertGetObjAsync(Dictionary&amp;lt;string, string&amp;gt; keyAndValue)&lt;/div&gt;&lt;div&gt;&amp;nbsp; &amp;nbsp; &amp;nbsp; &amp;nbsp; protected async Task&amp;lt;int&amp;gt; UpdateAsync(Dictionary&amp;lt;string, string&amp;gt; FildValue, Dictionary&amp;lt;string, string&amp;gt; parameters)&lt;/div&gt;&lt;div&gt;&amp;nbsp; &amp;nbsp; &amp;nbsp; &amp;nbsp; protected async Task&amp;lt;int&amp;gt; DeleteAsync(Dictionary&amp;lt;string, string&amp;gt; parameters)&lt;/div&gt;&lt;div&gt;&amp;nbsp; &amp;nbsp; &amp;nbsp; &amp;nbsp; private void PreQuery(string query)&lt;/div&gt;&lt;div&gt;&amp;nbsp; &amp;nbsp; &amp;nbsp; &amp;nbsp; private void PostQuery()&lt;/div&gt;&lt;div&gt;&amp;nbsp; &amp;nbsp; &amp;nbsp; &amp;nbsp; private string PrepareWhereQueryWithParameters(Dictionary&amp;lt;string, string&amp;gt; parameters)&lt;/div&gt;&lt;div&gt;&amp;nbsp; &amp;nbsp; &amp;nbsp; &amp;nbsp; private string PrepareUpdateQueryWithParameters(Dictionary&amp;lt;string, string&amp;gt; fields)&lt;/div&gt;&lt;div&gt;&amp;nbsp; &amp;nbsp; &amp;nbsp; &amp;nbsp; private string PrepareInsertQueryWithParameters(Dictionary&amp;lt;string, string&amp;gt; fields)&lt;/div&gt;&lt;div&gt;&amp;nbsp; &amp;nbsp; &amp;nbsp; &amp;nbsp; private List&amp;lt;object[]&amp;gt; StingListSelectAll(string query, Dictionary&amp;lt;string, string&amp;gt; parameters)&lt;/div&gt;&lt;div&gt;&amp;nbsp; &amp;nbsp; &amp;nbsp; &amp;nbsp; private async Task&amp;lt;List&amp;lt;object[]&amp;gt;&amp;gt; StingListSelectAllAsync(string query, Dictionary&amp;lt;string, string&amp;gt; parameters)&lt;/div&gt;&lt;div&gt;&lt;br&gt;&lt;/div&gt;&lt;/div&gt;" style="verticalAlign=top;align=left;overflow=fill;fontSize=12;fontFamily=Helvetica;html=1;whiteSpace=wrap;" parent="1" vertex="1">
          <mxGeometry x="-250" y="330" width="740" height="540" as="geometry" />
        </mxCell>
        <mxCell id="WdkqqA8Z08L83o_sLzLv-19" value="&lt;p style=&quot;margin:0px;margin-top:4px;text-align:center;&quot;&gt;&lt;b&gt;DB&lt;/b&gt;&lt;/p&gt;&lt;hr size=&quot;1&quot;&gt;&lt;div style=&quot;text-align: center; height: 2px;&quot;&gt;private const DbTypes dbType&lt;br&gt;&amp;nbsp;private const string MySqlConnSTR&lt;br&gt;&lt;div&gt;&amp;nbsp;protected static DbConnection conn&lt;/div&gt;&lt;div&gt;protected DbCommand cmd&lt;/div&gt;&lt;div&gt;protected DbDataReade reader&lt;/div&gt;&lt;div&gt;&lt;br&gt;&lt;/div&gt;&lt;div&gt;&lt;br&gt;&lt;/div&gt;&lt;div&gt;private enum DbTypes&amp;nbsp; &amp;nbsp; &amp;nbsp; &amp;nbsp;&lt;br&gt;protected DB()&lt;br&gt;&lt;/div&gt;&lt;div&gt;&lt;br&gt;&lt;/div&gt;&lt;/div&gt;" style="verticalAlign=top;align=left;overflow=fill;fontSize=12;fontFamily=Helvetica;html=1;whiteSpace=wrap;" parent="1" vertex="1">
          <mxGeometry x="-20" y="-180" width="240" height="220" as="geometry" />
        </mxCell>
        <mxCell id="WdkqqA8Z08L83o_sLzLv-22" value="&lt;p style=&quot;margin:0px;margin-top:4px;text-align:center;&quot;&gt;&lt;b&gt;coin&lt;/b&gt;&lt;/p&gt;&lt;hr size=&quot;1&quot;&gt;&lt;div style=&quot;text-align: center; height: 2px;&quot;&gt;&lt;p style=&quot;border-color: var(--border-color); margin: 4px 0px 0px;&quot;&gt;public int coincode { get; set; }&lt;/p&gt;&lt;p style=&quot;border-color: var(--border-color); margin: 4px 0px 0px;&quot;&gt;&amp;nbsp; &amp;nbsp; &amp;nbsp; &amp;nbsp; public string symbol { get; set; }&lt;/p&gt;&lt;p style=&quot;border-color: var(--border-color); margin: 4px 0px 0px;&quot;&gt;&amp;nbsp; &amp;nbsp; &amp;nbsp; &amp;nbsp; public string namecoin { get; set; }&lt;/p&gt;&lt;p style=&quot;border-color: var(--border-color); margin: 4px 0px 0px;&quot;&gt;&amp;nbsp; &amp;nbsp; &amp;nbsp; &amp;nbsp; public byte[] icon { get; set; }&lt;/p&gt;&lt;p style=&quot;border-color: var(--border-color); margin: 4px 0px 0px;&quot;&gt;&amp;nbsp; &amp;nbsp; &amp;nbsp; &amp;nbsp; public int rate { get; set; }&lt;/p&gt;&lt;/div&gt;" style="verticalAlign=top;align=left;overflow=fill;fontSize=12;fontFamily=Helvetica;html=1;whiteSpace=wrap;" parent="1" vertex="1">
          <mxGeometry x="-1170" y="1280" width="290" height="140" as="geometry" />
        </mxCell>
        <mxCell id="XRKkJ5Libcu-d3iw9Ujx-6" style="edgeStyle=orthogonalEdgeStyle;rounded=0;orthogonalLoop=1;jettySize=auto;html=1;exitX=0.5;exitY=1;exitDx=0;exitDy=0;" parent="1" edge="1">
          <mxGeometry relative="1" as="geometry">
            <mxPoint x="-1035" y="1560" as="sourcePoint" />
            <mxPoint x="-1035" y="1560" as="targetPoint" />
          </mxGeometry>
        </mxCell>
        <mxCell id="2dg6cs5HHX_1JvJMNU0q-1" value="&lt;p style=&quot;margin:0px;margin-top:4px;text-align:center;&quot;&gt;&lt;b&gt;customer&lt;/b&gt;&lt;/p&gt;&lt;hr size=&quot;1&quot;&gt;&lt;div style=&quot;text-align: center; height: 2px;&quot;&gt;&lt;p align=&quot;center&quot; class=&quot;MsoNormal&quot;&gt;Int IDcode&lt;/p&gt;&lt;p align=&quot;center&quot; class=&quot;MsoNormal&quot;&gt;string Password&lt;/p&gt;&lt;p align=&quot;center&quot; class=&quot;MsoNormal&quot;&gt;string Email&lt;/p&gt;&lt;p align=&quot;center&quot; class=&quot;MsoNormal&quot;&gt;string CustName&lt;/p&gt;&lt;/div&gt;" style="verticalAlign=top;align=left;overflow=fill;fontSize=12;fontFamily=Helvetica;html=1;whiteSpace=wrap;" parent="1" vertex="1">
          <mxGeometry x="-210" y="1540" width="310" height="160" as="geometry" />
        </mxCell>
        <mxCell id="IjrgsmGbUoeUeoKHHyYR-1" style="edgeStyle=orthogonalEdgeStyle;rounded=0;orthogonalLoop=1;jettySize=auto;html=1;exitX=0.5;exitY=0;exitDx=0;exitDy=0;entryX=0.5;entryY=1;entryDx=0;entryDy=0;" parent="1" source="2dg6cs5HHX_1JvJMNU0q-3" target="QOlhe6JBJdVeFNryJ9sW-1" edge="1">
          <mxGeometry relative="1" as="geometry">
            <mxPoint x="1290" y="1090" as="targetPoint" />
          </mxGeometry>
        </mxCell>
        <mxCell id="2dg6cs5HHX_1JvJMNU0q-3" value="&lt;p style=&quot;margin:0px;margin-top:4px;text-align:center;&quot;&gt;&lt;b&gt;transactions&lt;/b&gt;&lt;/p&gt;&lt;hr size=&quot;1&quot;&gt;&lt;div style=&quot;text-align: center; height: 2px;&quot;&gt;&lt;p align=&quot;center&quot; class=&quot;MsoNormal&quot;&gt;&amp;nbsp;public int transactionid { get; set; }&lt;/p&gt;&lt;p align=&quot;center&quot; class=&quot;MsoNormal&quot;&gt;&amp;nbsp; &amp;nbsp; &amp;nbsp; &amp;nbsp; public int customerid { get; set; }&lt;/p&gt;&lt;p align=&quot;center&quot; class=&quot;MsoNormal&quot;&gt;&amp;nbsp; &amp;nbsp; &amp;nbsp; &amp;nbsp; public int credit { get; set; }&lt;/p&gt;&lt;p align=&quot;center&quot; class=&quot;MsoNormal&quot;&gt;&amp;nbsp; &amp;nbsp; &amp;nbsp; &amp;nbsp; public int identification { get; set; }&lt;/p&gt;&lt;p align=&quot;center&quot; class=&quot;MsoNormal&quot;&gt;&amp;nbsp; &amp;nbsp; &amp;nbsp; &amp;nbsp; public DateTime datetime { get; set; }&lt;/p&gt;&lt;p align=&quot;center&quot; class=&quot;MsoNormal&quot;&gt;&amp;nbsp; &amp;nbsp; &amp;nbsp; &amp;nbsp; public int amount{ get; set; }&lt;/p&gt;&lt;p align=&quot;center&quot; class=&quot;MsoNormal&quot;&gt;&amp;nbsp; &amp;nbsp; &amp;nbsp; &amp;nbsp; public int bankid { get; set; }&lt;/p&gt;&lt;/div&gt;" style="verticalAlign=top;align=left;overflow=fill;fontSize=12;fontFamily=Helvetica;html=1;whiteSpace=wrap;" parent="1" vertex="1">
          <mxGeometry x="1100" y="1370" width="340" height="230" as="geometry" />
        </mxCell>
        <mxCell id="iykcufWnXcAQKCyKnDFi-15" style="edgeStyle=orthogonalEdgeStyle;rounded=0;orthogonalLoop=1;jettySize=auto;html=1;exitX=0.5;exitY=0;exitDx=0;exitDy=0;entryX=0.5;entryY=1;entryDx=0;entryDy=0;" parent="1" source="2dg6cs5HHX_1JvJMNU0q-4" target="iykcufWnXcAQKCyKnDFi-6" edge="1">
          <mxGeometry relative="1" as="geometry" />
        </mxCell>
        <mxCell id="2dg6cs5HHX_1JvJMNU0q-4" value="&lt;p style=&quot;margin:0px;margin-top:4px;text-align:center;&quot;&gt;&lt;b&gt;trade&lt;/b&gt;&lt;/p&gt;&lt;hr size=&quot;1&quot;&gt;&lt;div style=&quot;text-align: center; height: 2px;&quot;&gt;&lt;p align=&quot;center&quot; class=&quot;MsoNormal&quot;&gt;public int idtrade { get; set; }&lt;/p&gt;&lt;p align=&quot;center&quot; class=&quot;MsoNormal&quot;&gt;&amp;nbsp; &amp;nbsp; &amp;nbsp; &amp;nbsp; public int customerid { get; set; }&lt;/p&gt;&lt;p align=&quot;center&quot; class=&quot;MsoNormal&quot;&gt;&amp;nbsp; &amp;nbsp; &amp;nbsp; &amp;nbsp; public int coinid { get; set; }&lt;/p&gt;&lt;p align=&quot;center&quot; class=&quot;MsoNormal&quot;&gt;&amp;nbsp; &amp;nbsp; &amp;nbsp; &amp;nbsp; public int transactionid { get; set; }&lt;/p&gt;&lt;p align=&quot;center&quot; class=&quot;MsoNormal&quot;&gt;&amp;nbsp; &amp;nbsp; &amp;nbsp; &amp;nbsp; public int rate { get; set; }&lt;/p&gt;&lt;p align=&quot;center&quot; class=&quot;MsoNormal&quot;&gt;&amp;nbsp; &amp;nbsp; &amp;nbsp; &amp;nbsp; public DateTime date { get; set; }&lt;/p&gt;&lt;p align=&quot;center&quot; class=&quot;MsoNormal&quot;&gt;&amp;nbsp; &amp;nbsp; &amp;nbsp; &amp;nbsp; public bool sl { get; set; }&lt;/p&gt;&lt;p align=&quot;center&quot; class=&quot;MsoNormal&quot;&gt;&amp;nbsp; &amp;nbsp; &amp;nbsp; &amp;nbsp; public int amount { get; set; }&lt;/p&gt;&lt;/div&gt;" style="verticalAlign=top;align=left;overflow=fill;fontSize=12;fontFamily=Helvetica;html=1;whiteSpace=wrap;" parent="1" vertex="1">
          <mxGeometry x="-645" y="1340" width="320" height="250" as="geometry" />
        </mxCell>
        <mxCell id="i4rmOV85tLpB21eSPfGs-6" value="&lt;p style=&quot;margin:0px;margin-top:4px;text-align:center;&quot;&gt;&lt;b&gt;customerDB&lt;/b&gt;&lt;/p&gt;&lt;hr size=&quot;1&quot;&gt;&lt;div style=&quot;text-align: center; height: 2px;&quot;&gt;&lt;p align=&quot;center&quot; class=&quot;MsoNormal&quot;&gt;DeleteAsync(customer customer)&lt;/p&gt;&lt;p align=&quot;center&quot; class=&quot;MsoNormal&quot;&gt;UpdateAsync(customer customer)&lt;/p&gt;&lt;p align=&quot;center&quot; class=&quot;MsoNormal&quot;&gt;InsertGetObjAsync(customer customer)&lt;br&gt;&lt;/p&gt;&lt;p align=&quot;center&quot; class=&quot;MsoNormal&quot;&gt;login(string email, string password)&lt;/p&gt;&lt;p align=&quot;center&quot; class=&quot;MsoNormal&quot;&gt;SelectByEmailPassAsync(string email, string password)&lt;br&gt;&lt;/p&gt;&lt;/div&gt;" style="verticalAlign=top;align=left;overflow=fill;fontSize=12;fontFamily=Helvetica;html=1;whiteSpace=wrap;" parent="1" vertex="1">
          <mxGeometry x="-240" y="1260" width="385" height="170" as="geometry" />
        </mxCell>
        <mxCell id="i4rmOV85tLpB21eSPfGs-7" value="" style="endArrow=classic;html=1;rounded=0;exitX=0.5;exitY=0;exitDx=0;exitDy=0;entryX=0.312;entryY=1.003;entryDx=0;entryDy=0;entryPerimeter=0;" parent="1" source="2dg6cs5HHX_1JvJMNU0q-1" target="i4rmOV85tLpB21eSPfGs-6" edge="1">
          <mxGeometry width="50" height="50" relative="1" as="geometry">
            <mxPoint x="-60" y="1740" as="sourcePoint" />
            <mxPoint x="-10" y="1690" as="targetPoint" />
          </mxGeometry>
        </mxCell>
        <mxCell id="iykcufWnXcAQKCyKnDFi-1" value="&lt;p style=&quot;margin:0px;margin-top:4px;text-align:center;&quot;&gt;coinDB&lt;/p&gt;&lt;p style=&quot;margin:0px;margin-top:4px;text-align:center;&quot;&gt;&lt;br&gt;&lt;/p&gt;" style="verticalAlign=top;align=left;overflow=fill;fontSize=12;fontFamily=Helvetica;html=1;whiteSpace=wrap;" parent="1" vertex="1">
          <mxGeometry x="-1070" y="1050" width="290" height="120" as="geometry" />
        </mxCell>
        <mxCell id="iykcufWnXcAQKCyKnDFi-3" value="" style="endArrow=classic;html=1;rounded=0;entryX=0.525;entryY=1.055;entryDx=0;entryDy=0;entryPerimeter=0;" parent="1" source="WdkqqA8Z08L83o_sLzLv-22" target="iykcufWnXcAQKCyKnDFi-1" edge="1">
          <mxGeometry width="50" height="50" relative="1" as="geometry">
            <mxPoint x="-382.5" y="1490" as="sourcePoint" />
            <mxPoint x="-277.5" y="1200" as="targetPoint" />
            <Array as="points" />
          </mxGeometry>
        </mxCell>
        <mxCell id="iykcufWnXcAQKCyKnDFi-6" value="&lt;p style=&quot;margin:0px;margin-top:4px;text-align:center;&quot;&gt;&lt;b&gt;TradeDB&lt;/b&gt;&lt;/p&gt;&lt;hr size=&quot;1&quot;&gt;&lt;div style=&quot;text-align: center; height: 2px;&quot;&gt;&lt;br&gt;&lt;/div&gt;" style="verticalAlign=top;align=left;overflow=fill;fontSize=12;fontFamily=Helvetica;html=1;whiteSpace=wrap;" parent="1" vertex="1">
          <mxGeometry x="-650" y="1190" width="330" height="90" as="geometry" />
        </mxCell>
        <mxCell id="iykcufWnXcAQKCyKnDFi-11" style="edgeStyle=orthogonalEdgeStyle;rounded=0;orthogonalLoop=1;jettySize=auto;html=1;exitX=0.5;exitY=0;exitDx=0;exitDy=0;entryX=0.274;entryY=1.003;entryDx=0;entryDy=0;entryPerimeter=0;" parent="1" source="i4rmOV85tLpB21eSPfGs-6" target="WdkqqA8Z08L83o_sLzLv-14" edge="1">
          <mxGeometry relative="1" as="geometry" />
        </mxCell>
        <mxCell id="iykcufWnXcAQKCyKnDFi-12" style="edgeStyle=orthogonalEdgeStyle;rounded=0;orthogonalLoop=1;jettySize=auto;html=1;exitX=0.5;exitY=0;exitDx=0;exitDy=0;entryX=0.14;entryY=1.011;entryDx=0;entryDy=0;entryPerimeter=0;" parent="1" source="iykcufWnXcAQKCyKnDFi-1" target="WdkqqA8Z08L83o_sLzLv-14" edge="1">
          <mxGeometry relative="1" as="geometry" />
        </mxCell>
        <mxCell id="iykcufWnXcAQKCyKnDFi-16" style="edgeStyle=orthogonalEdgeStyle;rounded=0;orthogonalLoop=1;jettySize=auto;html=1;exitX=0.5;exitY=0;exitDx=0;exitDy=0;entryX=0.21;entryY=1;entryDx=0;entryDy=0;entryPerimeter=0;" parent="1" source="iykcufWnXcAQKCyKnDFi-6" target="WdkqqA8Z08L83o_sLzLv-14" edge="1">
          <mxGeometry relative="1" as="geometry" />
        </mxCell>
        <mxCell id="QOlhe6JBJdVeFNryJ9sW-2" style="edgeStyle=orthogonalEdgeStyle;rounded=0;orthogonalLoop=1;jettySize=auto;html=1;exitX=0.5;exitY=0;exitDx=0;exitDy=0;entryX=0.75;entryY=1;entryDx=0;entryDy=0;" edge="1" parent="1" source="QOlhe6JBJdVeFNryJ9sW-1" target="WdkqqA8Z08L83o_sLzLv-14">
          <mxGeometry relative="1" as="geometry">
            <mxPoint x="870" y="930" as="targetPoint" />
          </mxGeometry>
        </mxCell>
        <mxCell id="QOlhe6JBJdVeFNryJ9sW-1" value="&lt;p style=&quot;margin:0px;margin-top:4px;text-align:center;&quot;&gt;&lt;b&gt;transactionsDB&lt;/b&gt;&lt;/p&gt;&lt;hr size=&quot;1&quot;&gt;&lt;div style=&quot;text-align: center; height: 2px;&quot;&gt;&lt;p style=&quot;border-color: var(--border-color);&quot; align=&quot;center&quot; class=&quot;MsoNormal&quot;&gt;DeleteAsync(transaction transaction)&lt;/p&gt;&lt;p style=&quot;border-color: var(--border-color);&quot; align=&quot;center&quot; class=&quot;MsoNormal&quot;&gt;UpdateAsync(transaction transaction)&lt;/p&gt;&lt;p style=&quot;border-color: var(--border-color);&quot; align=&quot;center&quot; class=&quot;MsoNormal&quot;&gt;InsertGetObjAsync(transaction transaction)&lt;/p&gt;&lt;/div&gt;&lt;div style=&quot;text-align: center; height: 2px;&quot;&gt;&lt;br&gt;&lt;/div&gt;&lt;div style=&quot;text-align: center; height: 2px;&quot;&gt;&lt;br&gt;&lt;/div&gt;&lt;div style=&quot;text-align: center; height: 2px;&quot;&gt;&lt;br&gt;&lt;/div&gt;&lt;div style=&quot;text-align: center; height: 2px;&quot;&gt;&lt;br&gt;&lt;/div&gt;&lt;div style=&quot;text-align: center; height: 2px;&quot;&gt;&lt;br&gt;&lt;/div&gt;&lt;div style=&quot;text-align: center; height: 2px;&quot;&gt;&lt;br&gt;&lt;/div&gt;&lt;div style=&quot;text-align: center; height: 2px;&quot;&gt;&lt;br&gt;&lt;/div&gt;&lt;div style=&quot;text-align: center; height: 2px;&quot;&gt;&lt;br&gt;&lt;/div&gt;&lt;div style=&quot;text-align: center; height: 2px;&quot;&gt;&lt;br&gt;&lt;/div&gt;" style="verticalAlign=top;align=left;overflow=fill;fontSize=12;fontFamily=Helvetica;html=1;whiteSpace=wrap;" vertex="1" parent="1">
          <mxGeometry x="1020" y="1060" width="330" height="120" as="geometry" />
        </mxCell>
      </root>
    </mxGraphModel>
  </diagram>
</mxfile>
